# xmcd
#
# Track frame offsets:
# 150
# 12287
# 22165
# 34880
# 47727
# 59170
# 71642
# 83292
# 95440
# 106802
# 118242
# 130287
#
# Disc length: 1930 seconds
#
#
# Revision: 4
# Processed by: cddbd v1.5.2PL0 Copyright (c) Steve Scherf et al.
# Submitted via: FreeRIP 2.90 
#
DISCID=a307880c
DTITLE=Luiz Gonzaga - MPB no JT 5
DYEAR=1997
DGENRE=MPB
TTITLE0=Sanfona do Povo
TTITLE1=Ovo de Codorna
TTITLE2=Asa Branca
TTITLE3=Pau-de-Arara
TTITLE4=O Xote das Meninas
TTITLE5=Baião
TTITLE6=Capim Novo
TTITLE7=Estrada de Canindé
TTITLE8=Cintura Fina
TTITLE9=ABC do Sertão
TTITLE10=Dança, Mariquinha
TTITLE11=Vem Morena
EXTD=
EXTT0=
EXTT1=
EXTT2=
EXTT3=
EXTT4=
EXTT5=
EXTT6=
EXTT7=
EXTT8=
EXTT9=
EXTT10=
EXTT11=
PLAYORDER=
